<?xml version="1.0" standalone="no"?>
<!DOCTYPE svg PUBLIC "-//W3C//DTD SVG 20010904//EN"
 "http://www.w3.org/TR/2001/REC-SVG-20010904/DTD/svg10.dtd">
<svg version="1.0" xmlns="http://www.w3.org/2000/svg"
 width="300.000000pt" height="300.000000pt" viewBox="0 0 300.000000 300.000000"
 preserveAspectRatio="xMidYMid meet">

<g transform="translate(0.000000,300.000000) scale(0.100000,-0.100000)"
fill="#000000" stroke="none">
<path d="M1395 2463 c-50 -11 -158 -57 -202 -86 -115 -75 -211 -203 -256 -340
-15 -47 -20 -91 -20 -177 -1 -100 3 -125 25 -188 36 -100 82 -173 153 -246
117 -117 260 -176 429 -176 175 0 313 57 436 180 87 86 132 164 160 276 39
150 19 312 -53 449 -70 133 -234 261 -383 299 -58 15 -238 21 -289 9z m289
-67 c198 -71 357 -246 396 -432 39 -184 -34 -396 -179 -524 -132 -118 -309
-164 -492 -130 -67 13 -180 66 -236 111 -248 200 -280 572 -69 815 50 58 159
130 241 159 99 35 246 35 339 1z"/>
<path d="M1385 2371 c-178 -51 -315 -189 -369 -370 -32 -109 -17 -271 36 -374
17 -35 21 -37 32 -22 7 10 22 16 37 13 22 -3 24 -7 27 -70 5 -116 22 -76 22
52 l0 120 35 0 35 0 0 -155 c0 -97 4 -155 10 -155 6 0 10 75 10 206 l0 205 33
-3 32 -3 3 -222 c1 -137 6 -223 12 -223 6 0 10 102 10 276 l0 275 33 -3 32 -3
3 -287 2 -287 55 -6 c54 -7 136 -2 155 10 6 4 10 112 10 286 l0 279 35 0 35 0
0 -270 c0 -170 4 -270 10 -270 6 0 11 86 12 222 l3 223 30 0 30 0 3 -203 c1
-129 6 -201 12 -197 6 4 10 69 10 156 l0 149 35 0 35 0 0 -122 1 -123 20 24
c15 19 18 34 15 70 -3 31 -2 40 4 26 7 -17 9 -17 9 -2 1 9 8 17 16 17 13 0 13
-4 3 -22 -7 -13 -17 -26 -23 -30 -7 -5 -6 -8 0 -8 21 0 76 86 95 148 28 91 34
159 21 238 -29 166 -143 314 -309 400 -106 55 -242 68 -357 35z m140 -213 c-5
-4 2 -8 18 -8 20 0 27 -5 27 -20 0 -17 -7 -20 -45 -20 -38 0 -45 3 -45 20 0
11 7 20 15 20 8 0 16 6 17 13 0 6 2 17 3 22 2 6 4 21 5 35 2 18 5 14 9 -15 3
-23 2 -43 -4 -47z m55 -73 c0 -5 -25 -11 -55 -13 -45 -2 -55 0 -55 13 0 13 10
15 55 13 30 -2 55 -7 55 -13z m10 -59 c0 -19 5 -36 11 -38 16 -5 12 -540 -4
-550 -9 -6 -15 24 -23 120 l-11 127 -2 -115 c-2 -144 -15 -172 -27 -58 l-9 83
-3 -82 c-2 -67 -5 -81 -17 -76 -12 4 -15 30 -16 122 -2 98 -3 108 -9 61 -5
-30 -8 -88 -9 -129 -1 -68 -2 -73 -16 -55 -12 16 -14 67 -15 287 0 171 4 267
10 267 6 0 10 16 10 35 l0 35 65 0 65 0 0 -34z"/>
<path d="M1470 1990 c0 -5 5 -10 10 -10 6 0 10 5 10 10 0 6 -4 10 -10 10 -5 0
-10 -4 -10 -10z"/>
<path d="M1510 1990 c19 -13 30 -13 30 0 0 6 -10 10 -22 10 -19 0 -20 -2 -8
-10z"/>
<path d="M1555 1990 c3 -5 10 -10 16 -10 5 0 9 5 9 10 0 6 -7 10 -16 10 -8 0
-12 -4 -9 -10z"/>
<path d="M352 1005 c3 -94 21 -120 26 -37 2 28 6 52 10 51 4 0 24 -22 45 -50
20 -27 42 -49 47 -49 6 0 10 36 10 85 0 69 -3 85 -15 85 -11 0 -15 -13 -15
-52 l-1 -53 -25 30 c-14 17 -35 40 -45 53 -33 39 -40 27 -37 -63z"/>
<path d="M520 1082 c0 -5 13 -27 29 -49 18 -24 31 -57 33 -79 4 -48 22 -51 26
-4 2 19 17 54 33 78 32 48 36 62 15 62 -8 0 -24 -16 -36 -35 -12 -19 -23 -35
-25 -35 -2 0 -12 16 -24 35 -18 31 -51 48 -51 27z"/>
<path d="M718 1060 c-26 -27 -30 -36 -25 -68 11 -64 75 -100 128 -72 33 18 22
32 -20 25 -32 -5 -43 -3 -60 14 -12 12 -21 30 -21 41 0 11 9 29 21 41 17 17
28 19 60 14 45 -8 54 10 13 25 -42 16 -64 12 -96 -20z"/>
<path d="M912 1004 l3 -89 50 3 c58 3 95 35 95 82 0 48 -38 82 -98 88 l-53 5
3 -89z m98 36 c23 -23 24 -29 10 -64 -8 -21 -16 -26 -45 -26 l-35 0 0 55 c0
52 1 55 25 55 14 0 34 -9 45 -20z"/>
<path d="M1133 1073 c-3 -10 -19 -47 -35 -82 -29 -66 -26 -97 7 -61 25 27 84
27 108 0 33 -39 36 -9 5 63 -16 39 -35 78 -40 85 -15 17 -38 15 -45 -5z m44
-63 c11 -29 10 -30 -18 -30 -33 0 -33 0 -17 35 15 32 21 32 35 -5z"/>
<path d="M1237 1083 c-14 -13 -6 -23 18 -23 24 0 25 -2 25 -70 0 -63 2 -70 20
-70 18 0 20 7 20 70 0 68 1 70 25 70 16 0 25 6 25 15 0 12 -14 15 -63 15 -35
0 -67 -3 -70 -7z"/>
<path d="M1439 1063 c-5 -15 -22 -54 -36 -86 -29 -64 -25 -82 10 -49 29 28 77
28 107 2 42 -36 42 -6 3 76 -43 87 -66 103 -84 57z m48 -53 c11 -29 10 -30
-18 -30 -33 0 -33 0 -17 35 15 32 21 32 35 -5z"/>
<path d="M1635 1066 c-24 -36 -6 -63 48 -73 32 -7 42 -13 42 -28 0 -25 -38
-32 -71 -14 -33 17 -44 1 -15 -22 44 -36 121 -13 121 36 0 27 -34 55 -66 55
-12 0 -27 7 -34 15 -17 20 8 29 55 21 27 -5 35 -4 35 7 0 18 -21 27 -66 27
-25 0 -38 -6 -49 -24z"/>
<path d="M1814 1067 c-21 -19 -27 -32 -27 -67 0 -35 6 -48 27 -67 29 -25 65
-29 97 -13 33 18 22 32 -18 25 -50 -8 -76 11 -76 55 0 44 26 63 76 55 40 -7
51 7 18 25 -32 16 -68 12 -97 -13z"/>
<path d="M1962 1005 c2 -48 7 -85 13 -85 6 0 11 37 13 85 2 72 0 85 -13 85
-13 0 -15 -13 -13 -85z"/>
<path d="M2027 1084 c-13 -13 -8 -162 6 -166 6 -2 35 -4 62 -3 37 0 50 4 50
15 0 11 -13 16 -44 17 -49 2 -56 6 -48 28 5 10 20 15 53 15 62 0 54 24 -9 28
-39 3 -47 6 -47 23 0 16 7 19 51 19 36 0 49 4 47 13 -5 13 -109 23 -121 11z"/>
<path d="M2187 1083 c-9 -8 -9 -157 -1 -166 3 -3 13 -3 21 0 10 4 14 19 13 47
-3 62 -2 62 30 20 67 -85 63 -82 70 -54 3 14 6 54 6 90 -1 51 -4 65 -16 65
-11 0 -16 -14 -20 -48 l-5 -48 -40 51 c-40 51 -46 55 -58 43z"/>
<path d="M2379 1061 c-20 -20 -29 -39 -29 -61 0 -63 76 -109 131 -80 33 18 22
32 -20 25 -32 -5 -43 -3 -60 14 -27 27 -27 55 0 82 17 17 28 19 60 14 45 -8
54 10 13 25 -42 16 -64 12 -95 -19z"/>
<path d="M2528 1078 c-8 -25 -2 -148 8 -156 16 -14 114 -2 114 14 0 10 -13 14
-45 14 -38 0 -45 3 -45 20 0 17 7 20 45 20 33 0 45 4 45 15 0 11 -12 15 -45
15 -38 0 -45 3 -45 20 0 17 7 20 45 20 33 0 45 4 45 15 0 20 -116 22 -122 3z"/>
<path d="M423 787 c4 -30 0 -63 -16 -113 -26 -80 -35 -97 -48 -89 -5 4 -9 -8
-9 -24 l0 -31 63 0 c35 0 66 2 69 5 11 11 -5 55 -20 55 -30 0 3 18 38 21 46 4
73 -11 42 -22 -15 -6 -22 -17 -22 -34 0 -25 1 -25 85 -25 l85 0 0 29 c0 20 -6
31 -17 33 -12 2 -27 36 -53 118 l-36 115 -83 3 -84 3 6 -44z m103 -113 c-4
-12 -30 -14 -40 -3 -3 3 0 23 6 45 l11 39 14 -34 c8 -18 12 -39 9 -47z"/>
<path d="M773 810 c-64 -38 -88 -129 -54 -204 17 -38 29 -50 67 -67 65 -29
143 -15 181 31 10 12 7 20 -12 39 -23 23 -25 24 -43 8 -22 -20 -75 -22 -91 -4
-20 25 -23 72 -7 110 18 44 48 49 72 12 12 -19 25 -25 50 -25 l34 0 0 50 c0
28 1 53 3 58 4 13 -54 14 -70 0 -13 -10 -17 -10 -20 0 -7 19 -74 14 -110 -8z"/>
<path d="M1063 814 c-3 -9 -2 -24 4 -33 7 -12 4 -38 -13 -93 -25 -87 -35 -106
-49 -107 -5 0 -11 -12 -13 -26 -3 -25 -2 -25 67 -25 66 0 71 2 71 21 0 12 -7
27 -17 34 -32 23 4 35 80 26 15 -2 6 -19 -13 -24 -14 -3 -20 -14 -20 -31 0
-26 0 -26 85 -26 l85 0 0 30 c0 17 -5 29 -11 27 -15 -3 -22 13 -61 133 l-33
105 -78 3 c-65 2 -78 0 -84 -14z m104 -108 c13 -41 10 -45 -21 -39 -22 5 -23
7 -13 39 13 43 21 43 34 0z"/>
<path d="M1350 800 c0 -20 5 -30 15 -30 22 0 22 -178 0 -186 -8 -4 -15 -17
-15 -30 0 -24 2 -24 90 -24 157 0 214 54 197 183 -11 79 -81 117 -214 117
l-73 0 0 -30z m174 -52 c9 -12 16 -43 16 -68 0 -53 -22 -90 -53 -90 -21 0 -22
5 -24 78 -2 42 -1 83 2 90 7 20 43 14 59 -10z"/>
<path d="M1660 800 c0 -16 5 -30 10 -30 6 0 10 -39 10 -96 0 -61 -4 -93 -10
-89 -6 4 -10 -7 -10 -24 l0 -31 130 0 130 0 0 44 c0 39 -3 44 -27 49 -35 7
-53 -1 -53 -23 0 -14 -7 -17 -32 -16 -31 1 -33 4 -33 36 0 33 2 35 38 38 31 3
37 7 37 27 0 20 -6 24 -37 27 -33 3 -38 7 -41 31 -3 25 -1 27 32 27 30 0 36
-4 36 -21 0 -17 5 -20 38 -17 37 3 37 3 37 48 l0 45 -127 3 -128 3 0 -31z"/>
<path d="M1940 800 c0 -16 5 -30 10 -30 6 0 10 -36 10 -89 0 -50 -4 -93 -10
-96 -5 -3 -10 -17 -10 -31 0 -23 3 -24 55 -24 52 0 55 1 55 25 0 14 -4 25 -10
25 -6 0 -10 29 -9 68 l0 67 14 -36 c7 -20 19 -61 26 -92 l12 -57 47 0 47 0 23
88 c13 48 27 91 31 96 5 5 7 -21 6 -59 -2 -42 -8 -70 -15 -73 -7 -2 -12 -15
-12 -28 0 -23 3 -24 70 -24 68 0 70 1 70 25 0 14 -7 28 -15 31 -12 5 -15 25
-15 95 l0 89 29 0 c26 0 34 -8 70 -75 44 -80 49 -102 26 -111 -8 -4 -15 -17
-15 -30 0 -23 3 -24 70 -24 67 0 70 1 70 24 0 13 -7 26 -15 30 -8 3 -15 12
-15 21 0 25 59 135 87 161 40 37 28 58 -35 62 -56 3 -76 -13 -55 -47 10 -17
-4 -67 -21 -70 -13 -3 -37 57 -25 64 5 4 9 17 9 31 l0 25 -157 -3 -158 -3 -19
-74 c-22 -81 -23 -81 -51 22 l-16 57 -80 0 -79 0 0 -30z"/>
</g>
</svg>
